<svg xmlns="http://www.w3.org/2000/svg" enable-background="new 0 0 32 32" viewBox="0 0 32 32" id="feather">
  <g>
    <g>
      <path fill="#e0e0e0" d="M14,11c-4.54,3.96-7.29,9.09-8.7,12.64c0,0,5.7,1.36,9.7-1.64l-3-3h6c0.38-0.59,0.72-1.26,1-2
			c2.9-7.72,9-13,9-13C25.11,4.63,19.41,6.28,14,11z"></path>
      <path d="M3.78,28.98C3.86,28.99,3.93,29,4,29c0.46,0,0.87-0.32,0.98-0.78c0.2-0.9,0.49-1.99,0.9-3.22
			c0.69,0.12,5.64,0.87,9.72-2.19c0.23-0.17,0.38-0.44,0.4-0.73s-0.09-0.57-0.29-0.78L14.41,20H18c0.34,0,0.66-0.17,0.84-0.46
			c0.43-0.67,0.8-1.4,1.1-2.19c2.77-7.38,8.66-12.54,8.72-12.6c0.35-0.3,0.44-0.8,0.24-1.2c-0.2-0.41-0.66-0.63-1.11-0.53
			c-5.38,1.17-10.37,3.67-14.44,7.22C6.39,16.32,3.89,23.84,3.02,27.78C2.9,28.32,3.25,28.86,3.78,28.98z M14.66,11.75
			c2.9-2.53,6.31-4.5,10-5.77c-2.07,2.35-4.86,6.07-6.59,10.67c-0.18,0.48-0.39,0.93-0.63,1.35H12c-0.4,0-0.77,0.24-0.92,0.62
			c-0.15,0.37-0.07,0.8,0.22,1.09l2.13,2.13c-2.74,1.54-5.75,1.37-6.82,1.24C8.05,19.56,10.51,15.38,14.66,11.75z"></path>
    </g>
  </g>
</svg>
